<svg height="300px" width="300px" fill="#000000" xmlns="http://www.w3.org/2000/svg" data-name="Layer 1" viewBox="0 0 100 100" x="0px" y="0px"><title>65</title><path d="M50,95A45,45,0,1,0,5,50,45,45,0,0,0,50,95Zm-.63636-73.64888a5.44608,5.44608,0,1,1-5.446,5.44608A5.4461,5.4461,0,0,1,49.36364,21.35112ZM42.12117,44.70858a2.78536,2.78536,0,0,1-1.97074-2.64025,2.75662,2.75662,0,0,1,2.75593-2.75718H53.72077a.734.734,0,0,1,.73379.73445V67.17647c0,4.13236,1.88383,5.58164,3.42493,6.07557a2.78523,2.78523,0,0,1,1.97067,2.64025,2.75651,2.75651,0,0,1-2.75652,2.75652H42.907a2.75664,2.75664,0,0,1-2.75711-2.75652A2.78523,2.78523,0,0,1,42.12051,73.252c1.54169-.49393,3.42551-1.94321,3.42551-6.07557V50.78415C45.546,46.65179,43.6622,45.20251,42.12117,44.70858Z"/></svg>